<svg version="1.1" id="Layer_1" xmlns="http://www.w3.org/2000/svg" xmlns:xlink="http://www.w3.org/1999/xlink" x="0px" y="0px"
	 width="100%" viewBox="0 0 1254 1254" enable-background="new 0 0 1254 1254" xml:space="preserve">
<path fill="#E1A921" opacity="1.000000" stroke="none" 
	d="
M1143.787109,638.803223 
	C1134.795898,656.854187 1125.718872,674.467773 1117.278198,692.381226 
	C1109.273193,709.370117 1100.144043,725.560181 1087.104492,739.213989 
	C1067.084839,760.176575 1042.823975,771.865784 1013.030579,772.011353 
	C1015.458984,776.800903 1017.977295,781.217712 1020.001282,785.850342 
	C1031.789185,812.832031 1031.054321,840.332397 1022.391296,867.825256 
	C1016.645935,886.058533 1009.696716,903.909424 1003.755432,922.084839 
	C997.851013,940.147339 995.659790,958.781738 996.889709,977.782654 
	C996.964661,978.941223 996.937744,980.106995 996.927856,981.269226 
	C996.926819,981.395447 996.722778,981.519897 996.835938,981.390930 
	C990.006775,981.390930 983.399658,981.217773 976.804199,981.422668 
	C955.078308,982.097595 934.426086,987.503845 914.246033,995.358276 
	C895.296448,1002.733887 876.038757,1009.149902 855.441406,1010.168579 
	C828.448181,1011.503540 804.377686,1004.444031 784.303650,985.701294 
	C784.097107,985.508423 783.741760,985.474731 783.530945,985.395081 
	C782.169189,993.170898 781.455261,1001.120300 779.334045,1008.674622 
	C771.093201,1038.022827 751.430542,1058.260132 725.685974,1072.917358 
	C711.380188,1081.062256 696.379395,1088.000610 681.597900,1095.292480 
	C660.717041,1105.593140 641.987549,1118.582642 627.748840,1137.360107 
	C627.469421,1137.728516 626.956116,1137.919556 626.281128,1138.376709 
	C605.855896,1110.355591 575.421814,1096.789795 545.671326,1082.033325 
	C534.085510,1076.286621 522.711182,1069.737183 512.264648,1062.144409 
	C486.478119,1043.402344 471.673065,1018.105835 469.924774,985.166870 
	C467.749268,986.953613 465.909271,988.503845 464.028717,990.003296 
	C441.844696,1007.690796 416.340027,1012.713867 388.783722,1009.438538 
	C370.771973,1007.297668 353.866089,1001.072449 337.069611,994.609192 
	C315.731323,986.398438 293.835938,981.135620 270.801666,981.825256 
	C266.177826,981.963684 261.565765,982.494751 256.569427,982.873474 
	C256.569427,975.542358 256.991058,968.423645 256.490540,961.370361 
	C254.978119,940.057373 248.891602,919.886841 240.679337,900.255310 
	C233.728683,883.639587 227.972931,866.660278 225.716583,848.642517 
	C222.451645,822.570801 227.135117,798.273865 241.331619,775.987732 
	C241.779022,775.285461 242.241592,774.591309 242.651932,773.867737 
	C242.806915,773.594360 242.833649,773.248291 243.037537,772.499573 
	C241.770432,772.331604 240.562851,772.040039 239.352997,772.030334 
	C207.040314,771.771545 181.856659,757.400818 161.846619,732.848267 
	C150.145615,718.490906 142.499481,701.844055 134.775177,685.190247 
	C127.914597,670.398682 120.928009,655.615662 113.007935,641.379089 
	C104.598213,626.262329 92.893898,613.658752 79.542534,603.208313 
	C86.852875,595.967834 94.396149,589.233826 101.071831,581.728210 
	C114.179291,566.991211 122.391693,549.252808 130.854630,531.649841 
	C139.211853,514.266785 147.056900,496.466766 157.247910,480.176727 
	C172.047943,456.519318 193.279160,440.156433 221.007156,433.748352 
	C229.316620,431.827972 237.982544,431.449921 246.228989,430.397949 
	C242.607925,423.682281 238.398178,416.910461 235.171280,409.698822 
	C224.907761,386.761322 224.966827,363.005920 231.796494,339.360992 
	C236.496429,323.089447 242.603394,307.210724 248.403946,291.273834 
	C256.520905,268.972473 261.303802,246.170578 259.940643,222.309906 
	C259.902863,221.648819 259.908569,220.977097 259.985992,220.321198 
	C260.021240,220.022354 260.280945,219.749969 259.977020,220.297318 
	C271.714447,220.297318 282.997314,220.719040 294.236786,220.200211 
	C311.868683,219.386307 328.519989,214.002335 345.063354,208.241028 
	C364.732697,201.391052 384.527435,195.085876 405.691833,194.741486 
	C429.890320,194.347763 451.260223,201.397552 469.187042,217.994995 
	C469.877075,218.633850 470.610504,219.225845 471.236816,219.764893 
	C472.962067,212.092392 474.035553,204.509018 476.389709,197.346573 
	C485.453461,169.770477 504.435303,150.483521 529.210144,136.586243 
	C542.420959,129.175735 556.124756,122.640396 569.639343,115.775604 
	C592.279236,104.275528 612.001282,89.345139 626.256653,67.929222 
	C626.412415,67.695229 626.810181,67.622322 626.726624,67.665802 
	C633.811462,75.482399 640.416199,83.618683 647.900391,90.844078 
	C662.115479,104.567665 679.600952,113.365761 697.188599,121.858856 
	C715.210632,130.561676 733.215820,139.261536 748.384521,152.702225 
	C767.450500,169.596298 779.504822,190.237045 782.331116,215.854691 
	C782.493225,217.324005 782.817810,218.775391 783.158691,220.773773 
	C793.012573,210.963821 804.239380,204.040558 817.079956,199.809906 
	C842.196533,191.534607 866.999512,194.220535 891.670776,201.930206 
	C908.012146,207.036789 924.220947,212.666931 940.772217,216.974915 
	C957.982422,221.454422 975.636536,222.086334 993.309875,219.312790 
	C994.084290,219.191254 994.894348,219.297226 995.906860,219.297226 
	C995.906860,221.468414 996.000549,223.421387 995.892700,225.363174 
	C994.437622,251.568359 1001.426208,276.008759 1010.460999,300.269714 
	C1016.651794,316.893982 1022.352051,333.905121 1026.013794,351.220734 
	C1032.001709,379.537506 1026.520020,406.139923 1009.143738,429.820557 
	C1008.983765,430.038544 1009.046448,430.419830 1008.967163,431.005127 
	C1021.503784,431.145294 1033.798584,432.668854 1045.524292,437.352051 
	C1070.239014,447.222900 1088.368042,464.777252 1101.534790,487.301117 
	C1109.662354,501.204620 1116.379272,515.976562 1123.111084,530.642517 
	C1135.622803,557.900452 1150.786621,583.106934 1174.974121,601.803589 
	C1175.208618,601.984802 1175.317383,602.328674 1175.615234,602.805115 
	C1163.191650,612.999695 1152.603638,624.886841 1143.787109,638.803223 
M1098.814575,661.295654 
	C1107.454102,640.378235 1115.769043,619.279663 1131.944824,602.387085 
	C1117.282349,588.195801 1108.466431,570.497559 1100.249268,552.378174 
	C1094.753784,540.260559 1089.481934,527.981812 1083.050293,516.361694 
	C1071.595459,495.666382 1055.564087,479.394226 1032.827148,471.329071 
	C999.069763,459.354767 969.321411,468.076050 942.765991,490.485168 
	C927.436768,503.421021 916.361267,519.897339 905.285767,536.379333 
	C894.432007,552.531311 883.651428,568.767578 871.958984,584.304749 
	C866.697388,591.296448 859.296570,596.678345 852.805237,602.848755 
	C868.459656,612.936768 880.093445,627.238220 891.089722,642.188232 
	C902.925842,658.280151 914.377808,674.691467 926.923950,690.214478 
	C940.921936,707.533691 958.088257,721.131836 979.097961,729.416077 
	C1014.115112,743.223633 1048.739380,734.924683 1073.312744,706.560486 
	C1084.694946,693.422485 1092.007324,677.924988 1098.814575,661.295654 
M225.888184,470.299042 
	C217.727158,474.339294 209.057922,477.607025 201.506836,482.574493 
	C183.676453,494.304016 172.727173,511.824097 163.727570,530.663391 
	C151.857986,555.510559 143.249512,582.183777 122.894547,602.457947 
	C138.224564,618.729980 146.223862,638.856140 154.970795,658.654968 
	C160.871017,672.010071 167.054916,685.368652 174.565903,697.850769 
	C183.975357,713.487854 197.495834,725.223999 215.072556,731.145447 
	C246.553940,741.751221 274.817505,733.748108 300.718872,714.857422 
	C319.693481,701.018677 333.667236,682.529114 347.010925,663.526672 
	C362.551971,641.395142 376.502747,617.884766 399.378723,602.857300 
	C392.475433,596.121094 384.758667,590.243225 379.157684,582.777954 
	C367.886414,567.755005 357.512421,552.033875 347.240356,536.292786 
	C335.173706,517.801575 322.528595,499.848633 304.780426,486.277344 
	C281.395447,468.395813 255.422836,462.414093 225.888184,470.299042 
M600.072327,849.566223 
	C586.329773,860.375122 572.463318,871.031006 558.877075,882.032898 
	C542.996521,894.892761 528.526367,909.145386 518.279358,927.075745 
	C502.832611,954.104736 499.811737,982.065369 513.219116,1010.795776 
	C522.935730,1031.617188 539.606140,1045.591797 559.510193,1056.131714 
	C583.117249,1068.632568 608.298096,1078.614380 627.195618,1098.876221 
	C636.955566,1088.240723 648.505005,1080.478149 660.881104,1073.860596 
	C675.696533,1065.938721 691.064453,1058.910400 705.281677,1050.035034 
	C751.372131,1021.262329 762.796570,968.608521 733.538940,922.890320 
	C721.313721,903.787109 704.671753,888.996704 687.129944,875.038879 
	C665.993835,858.221252 642.377197,844.138184 627.837952,821.640259 
	C618.747253,830.807251 609.677490,839.953186 600.072327,849.566223 
M987.709778,792.823730 
	C976.372375,773.910889 959.513733,762.031128 938.952759,755.179199 
	C915.060974,747.217224 890.704773,748.553406 866.278564,752.252319 
	C838.262817,756.494812 810.479309,764.115051 782.436523,758.209534 
	C782.436523,767.063049 783.235474,775.900879 782.282471,784.545593 
	C779.712097,807.861450 776.223816,831.074524 773.424377,854.367310 
	C770.795227,876.242737 771.491699,897.930847 778.935852,918.972900 
	C789.655518,949.273560 809.627563,969.666321 841.725464,976.549377 
	C862.084717,980.915222 881.883911,977.522461 901.108704,970.522095 
	C923.600830,962.331909 945.621887,952.498657 970.631958,953.010498 
	C970.330200,934.288818 975.710693,917.006897 981.905334,899.916504 
	C985.590149,889.750488 989.940613,879.793884 993.065002,869.462891 
	C1000.887512,843.597656 1001.652832,818.012756 987.709778,792.823730 
M367.043213,974.512634 
	C370.304291,975.191528 373.556946,975.914246 376.827728,976.542603 
	C420.581848,984.948547 460.150482,962.255859 475.216949,920.420776 
	C484.052338,895.887634 483.952454,870.824890 480.571808,845.482300 
	C477.646332,823.551697 474.440826,801.655029 471.836151,779.686829 
	C471.006561,772.690063 471.706390,765.511963 471.706390,758.593140 
	C465.542480,759.162292 459.289795,760.030640 453.013336,760.266663 
	C430.869507,761.099304 409.310181,756.174622 387.549225,753.277283 
	C366.616638,750.490173 345.707367,749.315247 325.042603,754.862610 
	C295.873627,762.692871 273.066895,778.594543 261.151245,807.355652 
	C251.735107,830.083679 253.765549,853.030029 261.559875,875.672241 
	C270.292328,901.039368 283.115784,925.208862 283.176941,953.305054 
	C297.772736,952.435059 311.325073,955.786926 324.646301,960.105164 
	C338.582367,964.622742 352.387329,969.544739 367.043213,974.512634 
M721.809448,300.286407 
	C730.248474,289.653534 737.186707,278.174957 741.973999,265.408386 
	C754.739380,231.366577 746.747498,195.973389 720.912048,172.459915 
	C708.809875,161.445389 694.541931,153.958939 679.918945,146.998550 
	C660.951965,137.970428 642.123535,128.696457 627.366028,112.697388 
	C611.427856,130.194168 590.441345,139.364609 570.061401,149.568405 
	C561.746399,153.731552 553.506897,158.207153 545.786438,163.368439 
	C509.943481,187.330093 497.766449,229.324844 514.629272,268.927917 
	C525.309875,294.011658 543.202454,313.194641 563.747925,330.357544 
	C585.990845,348.938477 611.688721,363.730316 628.089783,389.542908 
	C640.314514,369.546173 658.549194,356.588928 676.209229,343.035187 
	C692.629578,330.432922 708.416016,317.160339 721.809448,300.286407 
M909.532898,452.080750 
	C919.959961,449.366058 930.783875,447.662689 940.742615,443.754547 
	C976.191711,429.843140 996.496643,398.897156 995.970825,360.931244 
	C995.741516,344.373871 990.822571,328.893799 985.297424,313.457977 
	C979.925049,298.448853 975.145264,283.208496 970.696106,267.897949 
	C969.070435,262.303589 969.143921,256.215424 968.435486,250.295807 
	C966.087463,250.295807 963.936890,250.307419 961.786438,250.293976 
	C942.811157,250.175446 925.223389,243.914215 907.594238,237.933762 
	C888.016357,231.292236 868.138184,226.584427 847.389160,230.575302 
	C811.009460,237.572571 789.265747,260.812683 777.972229,294.915222 
	C770.167114,318.483948 772.067505,342.523956 775.280701,366.603760 
	C777.743958,385.064301 780.093933,403.551727 781.870483,422.086975 
	C782.687317,430.609833 782.009521,439.276001 782.009521,447.143219 
	C791.001526,446.553864 800.633118,445.091980 810.184692,445.500641 
	C822.962036,446.047302 835.686157,447.967834 848.417358,449.435333 
	C868.431458,451.742401 888.408691,454.682587 909.532898,452.080750 
M316.011658,247.560776 
	C306.356598,248.781723 296.701508,250.002670 288.365082,251.056854 
	C285.127045,264.290375 282.504456,277.663361 278.521973,290.618347 
	C273.448608,307.122131 265.932007,322.960663 261.863159,339.669098 
	C254.052017,371.744843 260.554840,400.987274 284.770569,424.627258 
	C301.294159,440.757965 321.908142,448.869934 344.580841,452.009644 
	C365.294617,454.878052 385.775818,451.843964 406.277893,449.468475 
	C428.352844,446.910736 450.376678,442.517731 472.791168,447.954559 
	C472.791168,436.612183 471.906586,425.438751 472.987274,414.458740 
	C474.860718,395.423981 478.082642,376.525726 480.497192,357.539490 
	C483.495026,333.966675 482.952637,310.606750 474.052582,288.182037 
	C463.313416,261.123383 445.310364,241.119873 416.726898,232.528809 
	C396.058441,226.316711 375.608551,229.301422 355.416962,235.637589 
	C342.591461,239.662262 329.687531,243.436829 316.011658,247.560776 
M821.593933,564.129150 
	C832.915222,567.694946 841.769104,564.985413 848.878723,554.533997 
	C854.478638,546.301941 859.133057,537.418762 864.075378,528.749512 
	C870.553772,517.386047 876.902405,505.948578 883.324097,494.512207 
	C864.963440,491.498169 846.804871,488.159454 828.528320,485.696777 
	C821.419800,484.738953 813.889221,484.865173 806.830627,486.098389 
	C797.759888,487.683228 791.630371,495.946686 791.004639,504.992065 
	C790.360596,514.303650 795.953857,523.719543 804.347229,527.043091 
	C806.681458,527.967346 809.269287,528.251221 811.852112,528.854980 
	C803.471191,541.887329 807.412598,556.642578 821.593933,564.129150 
M441.318115,528.445496 
	C453.176453,525.882996 460.407562,517.041199 460.044006,505.548523 
	C459.699554,494.660614 452.077332,486.659271 440.074158,484.987671 
	C436.664581,484.512848 433.078552,484.436340 429.678467,484.918213 
	C417.338074,486.667145 405.042358,488.730957 392.729645,490.675171 
	C384.451965,491.982269 376.174042,493.288086 367.773895,494.613770 
	C377.904205,512.746643 387.684296,530.493896 397.746216,548.079956 
	C400.033142,552.076965 402.966309,555.837280 406.185425,559.137512 
	C411.344299,564.426331 417.818207,566.883179 425.280304,565.356018 
	C439.463959,562.453186 447.102539,546.534241 441.097595,532.829346 
	C440.539062,531.554688 440.719727,529.956055 441.318115,528.445496 
M797.966492,711.405029 
	C804.152649,719.231140 812.815613,721.085388 821.805176,719.643250 
	C843.389526,716.180542 864.851501,711.955139 886.509399,708.010864 
	C877.882202,694.217957 869.745667,680.913513 861.293274,667.812805 
	C856.617432,660.565674 851.973877,653.166748 846.309448,646.720398 
	C838.592651,637.938477 827.169556,636.810242 818.923401,642.875244 
	C809.431824,649.856445 806.442139,661.878113 811.662292,672.092773 
	C812.373779,673.485046 813.109985,674.864746 813.901367,676.377563 
	C796.077393,679.909668 788.826843,695.616089 797.966492,711.405029 
M420.830475,718.705627 
	C425.794769,719.094177 430.770935,719.922546 435.721130,719.788879 
	C450.756714,719.383057 459.756012,707.527405 456.292389,692.923096 
	C454.027100,683.371643 447.648956,678.034119 437.670654,676.294495 
	C438.553986,674.940247 439.223083,674.031555 439.771973,673.055176 
	C447.023804,660.155823 439.139038,642.210938 424.793976,639.575195 
	C415.428009,637.854309 407.807373,642.122681 402.830078,649.455017 
	C389.883209,668.527771 377.619385,688.064148 364.871582,707.741882 
	C383.516998,711.409973 401.736206,714.994141 420.830475,718.705627 
M508.838989,784.498535 
	C508.673279,786.649231 508.090240,788.864502 508.411346,790.939880 
	C510.136627,802.090332 511.846741,813.253235 514.023499,824.321045 
	C516.445496,836.636108 519.363220,848.853699 522.177734,861.624817 
	C539.336487,848.943420 555.988220,836.842651 572.366211,824.381958 
	C576.267212,821.414001 579.703552,817.564209 582.560303,813.554871 
	C587.562439,806.534363 588.464600,798.721741 584.089111,791.016724 
	C579.597534,783.107056 572.569214,778.797852 563.413696,779.986389 
	C558.606323,780.610474 554.036621,783.065430 549.401917,784.678894 
	C546.680054,773.769958 539.113342,767.239319 528.473389,767.169434 
	C518.509399,767.104004 511.597504,772.952209 508.838989,784.498535 
M549.332336,425.823761 
	C549.639160,424.433960 549.946045,423.044128 550.343384,421.244537 
	C552.045105,422.372742 553.370483,423.323029 554.762390,424.163055 
	C568.361389,432.370178 586.803284,422.280121 587.291748,406.436493 
	C587.507629,399.436676 584.901855,393.474823 579.714050,389.217133 
	C569.571350,380.892822 559.048889,373.022644 548.544556,365.150146 
	C540.237000,358.924103 531.721313,352.975708 523.092896,346.756165 
	C519.094299,364.821350 514.990479,382.467926 511.364777,400.212189 
	C510.042114,406.685120 509.220367,413.397034 509.289001,419.988281 
	C509.419464,432.514923 519.346680,441.324982 531.119934,439.840210 
	C539.484680,438.785309 545.570679,434.305237 549.332336,425.823761 
M735.683044,771.752258 
	C722.161438,761.999756 708.173340,767.452881 701.715210,785.194397 
	C701.024780,784.703979 700.381897,784.259583 699.751648,783.797913 
	C689.540833,776.318054 675.440491,779.287231 669.148560,790.244080 
	C663.536377,800.017151 665.785217,811.465454 676.784363,820.310852 
	C694.252258,834.358582 712.408447,847.550476 730.803040,861.506226 
	C731.560486,857.651306 732.211243,854.456116 732.814209,851.252014 
	C736.259949,832.941772 740.039490,814.684509 742.981812,796.293518 
	C744.372925,787.597778 743.156982,778.929016 735.683044,771.752258 
M738.383545,382.134430 
	C735.708252,370.518555 733.032959,358.902679 730.197632,346.592102 
	C711.431885,360.842255 692.924316,374.871002 674.467407,388.966156 
	C673.173035,389.954620 672.127502,391.346008 671.180969,392.700165 
	C666.205811,399.818054 665.055176,407.495819 669.060791,415.306122 
	C673.130493,423.241455 679.974731,427.624512 688.941345,426.855438 
	C693.793457,426.439240 698.487976,424.185333 703.480835,422.692505 
	C703.270569,422.377045 703.531921,422.620819 703.614990,422.914978 
	C706.993835,434.887848 716.071655,441.421844 727.115906,439.813080 
	C737.715759,438.269104 744.769165,429.818268 743.840759,417.431122 
	C742.974365,405.870789 740.390930,394.439087 738.383545,382.134430 
z"/>
<path fill="#034CB4" opacity="1.000000" stroke="none" 
	d="
M1098.644775,661.638184 
	C1092.007324,677.924988 1084.694946,693.422485 1073.312744,706.560486 
	C1048.739380,734.924683 1014.115112,743.223633 979.097961,729.416077 
	C958.088257,721.131836 940.921936,707.533691 926.923950,690.214478 
	C914.377808,674.691467 902.925842,658.280151 891.089722,642.188232 
	C880.093445,627.238220 868.459656,612.936768 852.805237,602.848755 
	C859.296570,596.678345 866.697388,591.296448 871.958984,584.304749 
	C883.651428,568.767578 894.432007,552.531311 905.285767,536.379333 
	C916.361267,519.897339 927.436768,503.421021 942.765991,490.485168 
	C969.321411,468.076050 999.069763,459.354767 1032.827148,471.329071 
	C1055.564087,479.394226 1071.595459,495.666382 1083.050293,516.361694 
	C1089.481934,527.981812 1094.753784,540.260559 1100.249268,552.378174 
	C1108.466431,570.497559 1117.282349,588.195801 1131.944824,602.387085 
	C1115.769043,619.279663 1107.454102,640.378235 1098.644775,661.638184 
z"/>
<path fill="#034CB4" opacity="1.000000" stroke="none" 
	d="
M226.285217,470.215271 
	C255.422836,462.414093 281.395447,468.395813 304.780426,486.277344 
	C322.528595,499.848633 335.173706,517.801575 347.240356,536.292786 
	C357.512421,552.033875 367.886414,567.755005 379.157684,582.777954 
	C384.758667,590.243225 392.475433,596.121094 399.378723,602.857300 
	C376.502747,617.884766 362.551971,641.395142 347.010925,663.526672 
	C333.667236,682.529114 319.693481,701.018677 300.718872,714.857422 
	C274.817505,733.748108 246.553940,741.751221 215.072556,731.145447 
	C197.495834,725.223999 183.975357,713.487854 174.565903,697.850769 
	C167.054916,685.368652 160.871017,672.010071 154.970795,658.654968 
	C146.223862,638.856140 138.224564,618.729980 122.894547,602.457947 
	C143.249512,582.183777 151.857986,555.510559 163.727570,530.663391 
	C172.727173,511.824097 183.676453,494.304016 201.506836,482.574493 
	C209.057922,477.607025 217.727158,474.339294 226.285217,470.215271 
z"/>
<path fill="#034DB4" opacity="1.000000" stroke="none" 
	d="
M600.340088,849.332642 
	C609.677490,839.953186 618.747253,830.807251 627.837952,821.640259 
	C642.377197,844.138184 665.993835,858.221252 687.129944,875.038879 
	C704.671753,888.996704 721.313721,903.787109 733.538940,922.890320 
	C762.796570,968.608521 751.372131,1021.262329 705.281677,1050.035034 
	C691.064453,1058.910400 675.696533,1065.938721 660.881104,1073.860596 
	C648.505005,1080.478149 636.955566,1088.240723 627.195618,1098.876221 
	C608.298096,1078.614380 583.117249,1068.632568 559.510193,1056.131714 
	C539.606140,1045.591797 522.935730,1031.617188 513.219116,1010.795776 
	C499.811737,982.065369 502.832611,954.104736 518.279358,927.075745 
	C528.526367,909.145386 542.996521,894.892761 558.877075,882.032898 
	C572.463318,871.031006 586.329773,860.375122 600.340088,849.332642 
z"/>
<path fill="#034DB4" opacity="1.000000" stroke="none" 
	d="
M987.877869,793.149292 
	C1001.652832,818.012756 1000.887512,843.597656 993.065002,869.462891 
	C989.940613,879.793884 985.590149,889.750488 981.905334,899.916504 
	C975.710693,917.006897 970.330200,934.288818 970.631958,953.010498 
	C945.621887,952.498657 923.600830,962.331909 901.108704,970.522095 
	C881.883911,977.522461 862.084717,980.915222 841.725464,976.549377 
	C809.627563,969.666321 789.655518,949.273560 778.935852,918.972900 
	C771.491699,897.930847 770.795227,876.242737 773.424377,854.367310 
	C776.223816,831.074524 779.712097,807.861450 782.282471,784.545593 
	C783.235474,775.900879 782.436523,767.063049 782.436523,758.209534 
	C810.479309,764.115051 838.262817,756.494812 866.278564,752.252319 
	C890.704773,748.553406 915.060974,747.217224 938.952759,755.179199 
	C959.513733,762.031128 976.372375,773.910889 987.877869,793.149292 
z"/>
<path fill="#034DB4" opacity="1.000000" stroke="none" 
	d="
M366.646423,974.401306 
	C352.387329,969.544739 338.582367,964.622742 324.646301,960.105164 
	C311.325073,955.786926 297.772736,952.435059 283.176941,953.305054 
	C283.115784,925.208862 270.292328,901.039368 261.559875,875.672241 
	C253.765549,853.030029 251.735107,830.083679 261.151245,807.355652 
	C273.066895,778.594543 295.873627,762.692871 325.042603,754.862610 
	C345.707367,749.315247 366.616638,750.490173 387.549225,753.277283 
	C409.310181,756.174622 430.869507,761.099304 453.013336,760.266663 
	C459.289795,760.030640 465.542480,759.162292 471.706390,758.593140 
	C471.706390,765.511963 471.006561,772.690063 471.836151,779.686829 
	C474.440826,801.655029 477.646332,823.551697 480.571808,845.482300 
	C483.952454,870.824890 484.052338,895.887634 475.216949,920.420776 
	C460.150482,962.255859 420.581848,984.948547 376.827728,976.542603 
	C373.556946,975.914246 370.304291,975.191528 366.646423,974.401306 
z"/>
<path fill="#034CB3" opacity="1.000000" stroke="none" 
	d="
M721.584106,300.563507 
	C708.416016,317.160339 692.629578,330.432922 676.209229,343.035187 
	C658.549194,356.588928 640.314514,369.546173 628.089783,389.542908 
	C611.688721,363.730316 585.990845,348.938477 563.747925,330.357544 
	C543.202454,313.194641 525.309875,294.011658 514.629272,268.927917 
	C497.766449,229.324844 509.943481,187.330093 545.786438,163.368439 
	C553.506897,158.207153 561.746399,153.731552 570.061401,149.568405 
	C590.441345,139.364609 611.427856,130.194168 627.366028,112.697388 
	C642.123535,128.696457 660.951965,137.970428 679.918945,146.998550 
	C694.541931,153.958939 708.809875,161.445389 720.912048,172.459915 
	C746.747498,195.973389 754.739380,231.366577 741.973999,265.408386 
	C737.186707,278.174957 730.248474,289.653534 721.584106,300.563507 
z"/>
<path fill="#034CB4" opacity="1.000000" stroke="none" 
	d="
M909.085815,452.128967 
	C888.408691,454.682587 868.431458,451.742401 848.417358,449.435333 
	C835.686157,447.967834 822.962036,446.047302 810.184692,445.500641 
	C800.633118,445.091980 791.001526,446.553864 782.009521,447.143219 
	C782.009521,439.276001 782.687317,430.609833 781.870483,422.086975 
	C780.093933,403.551727 777.743958,385.064301 775.280701,366.603760 
	C772.067505,342.523956 770.167114,318.483948 777.972229,294.915222 
	C789.265747,260.812683 811.009460,237.572571 847.389160,230.575302 
	C868.138184,226.584427 888.016357,231.292236 907.594238,237.933762 
	C925.223389,243.914215 942.811157,250.175446 961.786438,250.293976 
	C963.936890,250.307419 966.087463,250.295807 968.435486,250.295807 
	C969.143921,256.215424 969.070435,262.303589 970.696106,267.897949 
	C975.145264,283.208496 979.925049,298.448853 985.297424,313.457977 
	C990.822571,328.893799 995.741516,344.373871 995.970825,360.931244 
	C996.496643,398.897156 976.191711,429.843140 940.742615,443.754547 
	C930.783875,447.662689 919.959961,449.366058 909.085815,452.128967 
z"/>
<path fill="#034CB4" opacity="1.000000" stroke="none" 
	d="
M316.415222,247.442169 
	C329.687531,243.436829 342.591461,239.662262 355.416962,235.637589 
	C375.608551,229.301422 396.058441,226.316711 416.726898,232.528809 
	C445.310364,241.119873 463.313416,261.123383 474.052582,288.182037 
	C482.952637,310.606750 483.495026,333.966675 480.497192,357.539490 
	C478.082642,376.525726 474.860718,395.423981 472.987274,414.458740 
	C471.906586,425.438751 472.791168,436.612183 472.791168,447.954559 
	C450.376678,442.517731 428.352844,446.910736 406.277893,449.468475 
	C385.775818,451.843964 365.294617,454.878052 344.580841,452.009644 
	C321.908142,448.869934 301.294159,440.757965 284.770569,424.627258 
	C260.554840,400.987274 254.052017,371.744843 261.863159,339.669098 
	C265.932007,322.960663 273.448608,307.122131 278.521973,290.618347 
	C282.504456,277.663361 285.127045,264.290375 288.365082,251.056854 
	C296.701508,250.002670 306.356598,248.781723 316.415222,247.442169 
z"/>
<path fill="#054DB2" opacity="1.000000" stroke="none" 
	d="
M821.236267,563.990540 
	C807.412598,556.642578 803.471191,541.887329 811.852112,528.854980 
	C809.269287,528.251221 806.681458,527.967346 804.347229,527.043091 
	C795.953857,523.719543 790.360596,514.303650 791.004639,504.992065 
	C791.630371,495.946686 797.759888,487.683228 806.830627,486.098389 
	C813.889221,484.865173 821.419800,484.738953 828.528320,485.696777 
	C846.804871,488.159454 864.963440,491.498169 883.324097,494.512207 
	C876.902405,505.948578 870.553772,517.386047 864.075378,528.749512 
	C859.133057,537.418762 854.478638,546.301941 848.878723,554.533997 
	C841.769104,564.985413 832.915222,567.694946 821.236267,563.990540 
z"/>
<path fill="#054CB1" opacity="1.000000" stroke="none" 
	d="
M440.937683,528.476685 
	C440.719727,529.956055 440.539062,531.554688 441.097595,532.829346 
	C447.102539,546.534241 439.463959,562.453186 425.280304,565.356018 
	C417.818207,566.883179 411.344299,564.426331 406.185425,559.137512 
	C402.966309,555.837280 400.033142,552.076965 397.746216,548.079956 
	C387.684296,530.493896 377.904205,512.746643 367.773895,494.613770 
	C376.174042,493.288086 384.451965,491.982269 392.729645,490.675171 
	C405.042358,488.730957 417.338074,486.667145 429.678467,484.918213 
	C433.078552,484.436340 436.664581,484.512848 440.074158,484.987671 
	C452.077332,486.659271 459.699554,494.660614 460.044006,505.548523 
	C460.407562,517.041199 453.176453,525.882996 440.937683,528.476685 
z"/>
<path fill="#054DB2" opacity="1.000000" stroke="none" 
	d="
M797.745239,711.106689 
	C788.826843,695.616089 796.077393,679.909668 813.901367,676.377563 
	C813.109985,674.864746 812.373779,673.485046 811.662292,672.092773 
	C806.442139,661.878113 809.431824,649.856445 818.923401,642.875244 
	C827.169556,636.810242 838.592651,637.938477 846.309448,646.720398 
	C851.973877,653.166748 856.617432,660.565674 861.293274,667.812805 
	C869.745667,680.913513 877.882202,694.217957 886.509399,708.010864 
	C864.851501,711.955139 843.389526,716.180542 821.805176,719.643250 
	C812.815613,721.085388 804.152649,719.231140 797.745239,711.106689 
z"/>
<path fill="#054DB2" opacity="1.000000" stroke="none" 
	d="
M420.392944,718.641968 
	C401.736206,714.994141 383.516998,711.409973 364.871582,707.741882 
	C377.619385,688.064148 389.883209,668.527771 402.830078,649.455017 
	C407.807373,642.122681 415.428009,637.854309 424.793976,639.575195 
	C439.139038,642.210938 447.023804,660.155823 439.771973,673.055176 
	C439.223083,674.031555 438.553986,674.940247 437.670654,676.294495 
	C447.648956,678.034119 454.027100,683.371643 456.292389,692.923096 
	C459.756012,707.527405 450.756714,719.383057 435.721130,719.788879 
	C430.770935,719.922546 425.794769,719.094177 420.392944,718.641968 
z"/>
<path fill="#054CB1" opacity="1.000000" stroke="none" 
	d="
M508.906250,784.083496 
	C511.597504,772.952209 518.509399,767.104004 528.473389,767.169434 
	C539.113342,767.239319 546.680054,773.769958 549.401917,784.678894 
	C554.036621,783.065430 558.606323,780.610474 563.413696,779.986389 
	C572.569214,778.797852 579.597534,783.107056 584.089111,791.016724 
	C588.464600,798.721741 587.562439,806.534363 582.560303,813.554871 
	C579.703552,817.564209 576.267212,821.414001 572.366211,824.381958 
	C555.988220,836.842651 539.336487,848.943420 522.177734,861.624817 
	C519.363220,848.853699 516.445496,836.636108 514.023499,824.321045 
	C511.846741,813.253235 510.136627,802.090332 508.411346,790.939880 
	C508.090240,788.864502 508.673279,786.649231 508.906250,784.083496 
z"/>
<path fill="#054CB1" opacity="1.000000" stroke="none" 
	d="
M549.189331,426.161407 
	C545.570679,434.305237 539.484680,438.785309 531.119934,439.840210 
	C519.346680,441.324982 509.419464,432.514923 509.289001,419.988281 
	C509.220367,413.397034 510.042114,406.685120 511.364777,400.212189 
	C514.990479,382.467926 519.094299,364.821350 523.092896,346.756165 
	C531.721313,352.975708 540.237000,358.924103 548.544556,365.150146 
	C559.048889,373.022644 569.571350,380.892822 579.714050,389.217133 
	C584.901855,393.474823 587.507629,399.436676 587.291748,406.436493 
	C586.803284,422.280121 568.361389,432.370178 554.762390,424.163055 
	C553.370483,423.323029 552.045105,422.372742 550.343384,421.244537 
	C549.946045,423.044128 549.639160,424.433960 549.189331,426.161407 
z"/>
<path fill="#054DB2" opacity="1.000000" stroke="none" 
	d="
M735.967285,771.980713 
	C743.156982,778.929016 744.372925,787.597778 742.981812,796.293518 
	C740.039490,814.684509 736.259949,832.941772 732.814209,851.252014 
	C732.211243,854.456116 731.560486,857.651306 730.803040,861.506226 
	C712.408447,847.550476 694.252258,834.358582 676.784363,820.310852 
	C665.785217,811.465454 663.536377,800.017151 669.148560,790.244080 
	C675.440491,779.287231 689.540833,776.318054 699.751648,783.797913 
	C700.381897,784.259583 701.024780,784.703979 701.715210,785.194397 
	C708.173340,767.452881 722.161438,761.999756 735.967285,771.980713 
z"/>
<path fill="#054DB1" opacity="1.000000" stroke="none" 
	d="
M738.473389,382.542603 
	C740.390930,394.439087 742.974365,405.870789 743.840759,417.431122 
	C744.769165,429.818268 737.715759,438.269104 727.115906,439.813080 
	C716.071655,441.421844 706.993835,434.887848 703.614990,422.914978 
	C703.531921,422.620819 703.270569,422.377045 703.480835,422.692505 
	C698.487976,424.185333 693.793457,426.439240 688.941345,426.855438 
	C679.974731,427.624512 673.130493,423.241455 669.060791,415.306122 
	C665.055176,407.495819 666.205811,399.818054 671.180969,392.700165 
	C672.127502,391.346008 673.173035,389.954620 674.467407,388.966156 
	C692.924316,374.871002 711.431885,360.842255 730.197632,346.592102 
	C733.032959,358.902679 735.708252,370.518555 738.473389,382.542603 
z"/>
</svg>
