<?xml version="1.0" encoding="UTF-8"?>
<!DOCTYPE svg PUBLIC "-//W3C//DTD SVG 1.1//EN" "http://www.w3.org/Graphics/SVG/1.1/DTD/svg11.dtd">
<svg xmlns="http://www.w3.org/2000/svg" version="1.1" width="351px" height="201px" style="shape-rendering:geometricPrecision; text-rendering:geometricPrecision; image-rendering:optimizeQuality; fill-rule:evenodd; clip-rule:evenodd" xmlns:xlink="http://www.w3.org/1999/xlink">
<g><path style="opacity:1" fill="#f8f8f8" d="M -0.5,-0.5 C 116.5,-0.5 233.5,-0.5 350.5,-0.5C 350.5,66.5 350.5,133.5 350.5,200.5C 233.5,200.5 116.5,200.5 -0.5,200.5C -0.5,133.5 -0.5,66.5 -0.5,-0.5 Z"/></g>
<g><path style="opacity:1" fill="#050505" d="M 160.5,3.5 C 230.918,1.4533 285.085,29.7866 323,88.5C 339.773,117.924 347.606,149.591 346.5,183.5C 306.258,171.907 265.592,170.407 224.5,179C 212.28,181.968 200.28,185.301 188.5,189C 220.36,169.214 255.027,158.38 292.5,156.5C 303.904,156.748 315.237,157.748 326.5,159.5C 318.103,98.9409 285.769,56.7742 229.5,33C 170.106,12.8557 116.773,23.189 69.5,64C 39.5456,93.085 23.5456,128.585 21.5,170.5C 47.9608,178.576 74.9608,180.742 102.5,177C 112.55,175.257 122.55,173.257 132.5,171C 160.302,162.399 187.968,153.399 215.5,144C 225.094,141.679 234.76,139.679 244.5,138C 263.196,136.087 281.529,137.754 299.5,143C 281.525,141.203 263.859,142.869 246.5,148C 238.084,150.373 229.75,153.04 221.5,156C 199.054,165.222 176.388,173.889 153.5,182C 118.123,194.523 81.79,198.857 44.5,195C 30.1692,192.459 16.3359,188.293 3,182.5C 3.18836,107.352 36.6884,52.8521 103.5,19C 121.909,11.1506 140.909,5.98391 160.5,3.5 Z"/></g>
</svg>
